<svg xmlns="http://www.w3.org/2000/svg" xmlns:xlink="http://www.w3.org/1999/xlink" width="500" zoomAndPan="magnify" viewBox="0 0 375 374.999991" height="500" preserveAspectRatio="xMidYMid meet" version="1.0"><defs><clipPath id="a681bbb435"><path d="M 86.265625 73.445312 L 288.765625 73.445312 L 288.765625 305.945312 L 86.265625 305.945312 Z M 86.265625 73.445312 " clip-rule="nonzero"/></clipPath></defs><g clip-path="url(#a681bbb435)"><path fill="#ffde59" d="M 248.574219 230.273438 C 246.34375 230.273438 244.460938 231.757812 243.738281 233.867188 C 236.667969 254.363281 216.886719 265.683594 191.417969 265.683594 C 154.300781 265.683594 131.851562 237.628906 131.851562 189.722656 C 131.851562 141.972656 154.300781 113.917969 191.265625 113.917969 C 217.324219 113.917969 237.535156 127.46875 244.183594 150.5625 C 244.828125 152.789062 246.765625 154.386719 249.074219 154.386719 C 249.074219 154.386719 277.078125 154.402344 286.148438 154.386719 C 287.671875 154.382812 288.859375 153.035156 288.660156 151.527344 C 282.734375 106.179688 242.019531 73.445312 191.265625 73.445312 C 126.535156 73.445312 86.320312 118.058594 86.320312 189.875 C 86.320312 261.597656 126.59375 306.15625 191.417969 306.15625 C 242.351562 306.15625 281.339844 276.890625 288.652344 233.234375 C 288.910156 231.699219 287.707031 230.277344 286.144531 230.273438 Z M 248.574219 230.273438 " fill-opacity="1" fill-rule="nonzero"/></g><path stroke-linecap="butt" transform="matrix(0, -0.75, 0.75, 0, 142.619599, 87.553662)" fill="none" stroke-linejoin="miter" d="M -0.001367 23.001994 L 110.826765 23.001994 " stroke="#ffde59" stroke-width="46" stroke-opacity="1" stroke-miterlimit="4"/><path stroke-linecap="butt" transform="matrix(0, -0.75, 0.75, 0, 187.699504, 87.553662)" fill="none" stroke-linejoin="miter" d="M -0.001367 22.999621 L 110.826765 22.999621 " stroke="#ffde59" stroke-width="46" stroke-opacity="1" stroke-miterlimit="4"/><path stroke-linecap="butt" transform="matrix(0, -0.75, 0.75, 0, 147.705434, 370.555699)" fill="none" stroke-linejoin="miter" d="M 0.00134849 23.002131 L 110.824272 23.002131 " stroke="#ffde59" stroke-width="46" stroke-opacity="1" stroke-miterlimit="4"/><path stroke-linecap="butt" transform="matrix(0, -0.75, 0.75, 0, 192.785325, 370.555699)" fill="none" stroke-linejoin="miter" d="M 0.00134849 22.999777 L 110.824272 22.999777 " stroke="#ffde59" stroke-width="46" stroke-opacity="1" stroke-miterlimit="4"/></svg>